<svg xmlns="http://www.w3.org/2000/svg" viewBox="0 0 1600 1200" preserveAspectRatio="xMidYMid slice" aria-hidden="true">
<g fill="currentColor"><circle cx="615" cy="715" r="2"/><circle cx="831" cy="686" r="1.5"/><circle cx="638" cy="618" r="1.5"/><circle cx="633" cy="623" r="1.5"/><circle cx="723" cy="634" r="1.5"/><circle cx="691" cy="634" r="2.5"/><circle cx="640" cy="637" r="1.5"/><circle cx="683" cy="678" r="2.5"/><circle cx="542" cy="517" r="2"/><circle cx="621" cy="655" r="1.5"/><circle cx="953" cy="590" r="2.5"/><circle cx="651" cy="690" r="2.5"/><circle cx="731" cy="684" r="2"/><circle cx="707" cy="560" r="2.5"/><circle cx="751" cy="759" r="2.5"/><circle cx="599" cy="684" r="1.5"/><circle cx="626" cy="613" r="1.5"/><circle cx="678" cy="640" r="2"/><circle cx="622" cy="539" r="2"/><circle cx="623" cy="601" r="1.5"/><circle cx="593" cy="643" r="2.5"/><circle cx="592" cy="431" r="1.5"/><circle cx="678" cy="755" r="1.5"/><circle cx="730" cy="577" r="1.5"/><circle cx="659" cy="545" r="2"/><circle cx="973" cy="845" r="2"/><circle cx="669" cy="626" r="1.5"/><circle cx="586" cy="629" r="2"/><circle cx="794" cy="648" r="1.5"/><circle cx="473" cy="545" r="1.5"/><circle cx="736" cy="573" r="2"/><circle cx="495" cy="529" r="2"/><circle cx="430" cy="518" r="1.5"/><circle cx="745" cy="603" r="2.5"/><circle cx="645" cy="628" r="2.5"/><circle cx="658" cy="589" r="2"/><circle cx="504" cy="446" r="1.5"/><circle cx="669" cy="633" r="2.5"/><circle cx="660" cy="632" r="2.5"/><circle cx="645" cy="629" r="2.5"/><circle cx="691" cy="651" r="1.5"/><circle cx="676" cy="596" r="2.5"/><circle cx="674" cy="625" r="1.5"/><circle cx="775" cy="538" r="2.5"/><circle cx="829" cy="694" r="2"/><circle cx="716" cy="592" r="2.5"/><circle cx="706" cy="566" r="1.5"/><circle cx="593" cy="661" r="2"/><circle cx="494" cy="799" r="1.5"/><circle cx="818" cy="787" r="2.5"/><circle cx="678" cy="633" r="1.5"/><circle cx="564" cy="632" r="1.5"/><circle cx="671" cy="624" r="2"/><circle cx="660" cy="629" r="2.5"/><circle cx="441" cy="823" r="1.5"/><circle cx="617" cy="512" r="2"/><circle cx="506" cy="611" r="2"/><circle cx="815" cy="664" r="1.5"/><circle cx="718" cy="597" r="1.5"/><circle cx="761" cy="395" r="1.5"/><circle cx="628" cy="652" r="2.5"/><circle cx="644" cy="599" r="1.5"/><circle cx="759" cy="653" r="1.5"/><circle cx="694" cy="653" r="2.5"/><circle cx="670" cy="626" r="2.5"/><circle cx="673" cy="625" r="1.5"/><circle cx="690" cy="635" r="2.5"/><circle cx="690" cy="609" r="2"/><circle cx="621" cy="588" r="1.5"/><circle cx="619" cy="684" r="2"/><circle cx="535" cy="750" r="2.5"/><circle cx="875" cy="617" r="2"/><circle cx="610" cy="635" r="2.5"/><circle cx="677" cy="627" r="2.5"/><circle cx="658" cy="641" r="2"/><circle cx="820" cy="815" r="2.5"/><circle cx="845" cy="644" r="2"/><circle cx="706" cy="660" r="2"/><circle cx="497" cy="585" r="2.5"/><circle cx="703" cy="621" r="1.5"/><circle cx="697" cy="601" r="2"/><circle cx="598" cy="689" r="2"/><circle cx="685" cy="642" r="2.5"/><circle cx="705" cy="480" r="2"/><circle cx="650" cy="656" r="2"/><circle cx="941" cy="604" r="2.5"/><circle cx="729" cy="563" r="2"/><circle cx="655" cy="416" r="1.5"/><circle cx="692" cy="735" r="1.5"/><circle cx="687" cy="626" r="1.5"/><circle cx="693" cy="627" r="2.5"/><circle cx="632" cy="539" r="2"/><circle cx="993" cy="552" r="2"/><circle cx="787" cy="617" r="1.5"/><circle cx="739" cy="608" r="2"/><circle cx="684" cy="687" r="2.5"/><circle cx="691" cy="669" r="2"/><circle cx="835" cy="530" r="1.5"/><circle cx="788" cy="478" r="2"/><circle cx="681" cy="603" r="2"/><circle cx="823" cy="695" r="1.5"/><circle cx="728" cy="406" r="1.5"/><circle cx="672" cy="549" r="1.5"/><circle cx="675" cy="614" r="2"/><circle cx="610" cy="711" r="2"/><circle cx="370" cy="809" r="2"/><circle cx="487" cy="730" r="1.5"/><circle cx="710" cy="679" r="2"/><circle cx="804" cy="732" r="2.5"/><circle cx="764" cy="426" r="2.5"/><circle cx="790" cy="748" r="2.5"/><circle cx="467" cy="375" r="1.5"/><circle cx="627" cy="673" r="1.5"/><circle cx="696" cy="626" r="2.5"/><circle cx="778" cy="608" r="1.5"/><circle cx="807" cy="576" r="1.5"/><circle cx="494" cy="687" r="2.5"/><circle cx="721" cy="781" r="2"/><circle cx="672" cy="648" r="2.5"/><circle cx="580" cy="580" r="2.5"/><circle cx="668" cy="679" r="1.5"/><circle cx="705" cy="607" r="1.5"/><circle cx="556" cy="746" r="2.5"/><circle cx="715" cy="601" r="2"/><circle cx="537" cy="683" r="2.5"/><circle cx="586" cy="610" r="1.5"/><circle cx="513" cy="605" r="1.5"/><circle cx="680" cy="638" r="1.5"/><circle cx="700" cy="625" r="2.5"/><circle cx="585" cy="636" r="2.5"/><circle cx="653" cy="525" r="2.5"/><circle cx="626" cy="620" r="1.5"/><circle cx="658" cy="620" r="1.5"/><circle cx="608" cy="603" r="1.5"/><circle cx="672" cy="659" r="2"/><circle cx="418" cy="614" r="2"/><circle cx="653" cy="618" r="1.5"/><circle cx="362" cy="716" r="2.5"/><circle cx="535" cy="531" r="2.5"/><circle cx="670" cy="619" r="1.5"/><circle cx="512" cy="663" r="1.5"/><circle cx="705" cy="614" r="2"/><circle cx="592" cy="430" r="2.5"/><circle cx="657" cy="824" r="2"/><circle cx="421" cy="545" r="1.5"/><circle cx="737" cy="685" r="2"/><circle cx="711" cy="654" r="2.5"/><circle cx="673" cy="641" r="2"/><circle cx="786" cy="669" r="2"/><circle cx="855" cy="513" r="1.5"/><circle cx="698" cy="655" r="2"/><circle cx="806" cy="759" r="2.5"/><circle cx="749" cy="568" r="2"/><circle cx="692" cy="619" r="1.5"/><circle cx="308" cy="840" r="2.5"/><circle cx="690" cy="599" r="2"/><circle cx="759" cy="736" r="2.5"/><circle cx="632" cy="675" r="2.5"/><circle cx="705" cy="700" r="1.5"/><circle cx="889" cy="645" r="2"/><circle cx="647" cy="617" r="2"/><circle cx="667" cy="631" r="1.5"/><circle cx="633" cy="593" r="1.5"/><circle cx="676" cy="624" r="1.5"/><circle cx="689" cy="570" r="2"/><circle cx="671" cy="634" r="1.5"/><circle cx="693" cy="628" r="2.5"/><circle cx="752" cy="692" r="2"/><circle cx="464" cy="712" r="2.5"/><circle cx="664" cy="741" r="2"/><circle cx="773" cy="734" r="2"/><circle cx="643" cy="552" r="1.5"/><circle cx="853" cy="715" r="2"/><circle cx="600" cy="653" r="1.5"/><circle cx="849" cy="693" r="2.5"/><circle cx="698" cy="563" r="1.5"/><circle cx="702" cy="638" r="2.5"/><circle cx="700" cy="597" r="2"/><circle cx="575" cy="647" r="2"/><circle cx="816" cy="567" r="2.5"/><circle cx="658" cy="724" r="2.5"/><circle cx="682" cy="730" r="2.5"/><circle cx="692" cy="637" r="2.5"/><circle cx="684" cy="655" r="1.5"/><circle cx="639" cy="687" r="2"/><circle cx="613" cy="809" r="2.5"/><circle cx="611" cy="624" r="2.5"/><circle cx="796" cy="635" r="2"/><circle cx="671" cy="818" r="2.5"/><circle cx="650" cy="618" r="2"/><circle cx="800" cy="881" r="2"/><circle cx="715" cy="651" r="2"/><circle cx="739" cy="508" r="2"/><circle cx="709" cy="574" r="2.5"/><circle cx="493" cy="738" r="1.5"/><circle cx="682" cy="623" r="2"/><circle cx="608" cy="702" r="2"/><circle cx="538" cy="501" r="1.5"/><circle cx="648" cy="637" r="2"/><circle cx="700" cy="648" r="1.5"/><circle cx="678" cy="626" r="1.5"/><circle cx="732" cy="703" r="2.5"/><circle cx="814" cy="691" r="2.5"/><circle cx="550" cy="445" r="1.5"/><circle cx="671" cy="629" r="2"/><circle cx="551" cy="649" r="2.5"/><circle cx="733" cy="698" r="2"/><circle cx="710" cy="617" r="2"/><circle cx="778" cy="609" r="2.5"/><circle cx="704" cy="618" r="2.5"/><circle cx="670" cy="627" r="2.5"/><circle cx="668" cy="627" r="2"/><circle cx="573" cy="637" r="2.5"/><circle cx="670" cy="624" r="1.5"/><circle cx="678" cy="624" r="2.5"/><circle cx="620" cy="655" r="1.5"/><circle cx="794" cy="650" r="1.5"/><circle cx="674" cy="638" r="1.5"/><circle cx="461" cy="523" r="2"/><circle cx="647" cy="594" r="2.5"/><circle cx="649" cy="540" r="2.5"/><circle cx="625" cy="697" r="2"/><circle cx="814" cy="613" r="2"/><circle cx="551" cy="502" r="2.5"/><circle cx="827" cy="659" r="2"/><circle cx="482" cy="468" r="1.5"/><circle cx="669" cy="599" r="1.5"/><circle cx="597" cy="615" r="2"/><circle cx="534" cy="621" r="1.5"/><circle cx="780" cy="458" r="2.5"/><circle cx="519" cy="552" r="2.5"/><circle cx="623" cy="518" r="1.5"/><circle cx="682" cy="686" r="1.5"/><circle cx="662" cy="634" r="1.5"/><circle cx="750" cy="672" r="1.5"/><circle cx="558" cy="529" r="2.5"/><circle cx="621" cy="582" r="2"/><circle cx="830" cy="627" r="2"/><circle cx="673" cy="623" r="1.5"/><circle cx="499" cy="593" r="2.5"/><circle cx="551" cy="473" r="2"/><circle cx="671" cy="703" r="2.5"/><circle cx="693" cy="633" r="1.5"/><circle cx="739" cy="809" r="2"/><circle cx="661" cy="486" r="2.5"/><circle cx="652" cy="638" r="2"/><circle cx="569" cy="635" r="2.5"/><circle cx="498" cy="498" r="1.5"/><circle cx="625" cy="577" r="1.5"/><circle cx="671" cy="656" r="2"/><circle cx="669" cy="572" r="2.5"/><circle cx="854" cy="635" r="2"/><circle cx="696" cy="632" r="1.5"/><circle cx="593" cy="458" r="1.5"/><circle cx="651" cy="591" r="1.5"/><circle cx="501" cy="655" r="1.5"/><circle cx="444" cy="663" r="2.5"/><circle cx="739" cy="787" r="1.5"/><circle cx="698" cy="621" r="2"/><circle cx="661" cy="626" r="1.5"/><circle cx="740" cy="508" r="1.5"/><circle cx="668" cy="650" r="2.5"/><circle cx="696" cy="699" r="1.5"/><circle cx="642" cy="610" r="2.5"/><circle cx="902" cy="852" r="2"/><circle cx="710" cy="657" r="2"/><circle cx="806" cy="398" r="2"/><circle cx="667" cy="611" r="1.5"/><circle cx="688" cy="734" r="1.5"/><circle cx="774" cy="637" r="2.5"/><circle cx="836" cy="627" r="2.5"/><circle cx="669" cy="630" r="2"/><circle cx="718" cy="669" r="2.5"/><circle cx="730" cy="551" r="2.5"/><circle cx="673" cy="624" r="2.5"/><circle cx="881" cy="781" r="2"/><circle cx="739" cy="597" r="2.5"/><circle cx="594" cy="868" r="2.5"/><circle cx="373" cy="871" r="2.5"/><circle cx="382" cy="478" r="2"/><circle cx="603" cy="690" r="1.5"/><circle cx="722" cy="637" r="1.5"/><circle cx="722" cy="654" r="1.5"/><circle cx="769" cy="591" r="1.5"/><circle cx="672" cy="638" r="1.5"/><circle cx="738" cy="757" r="2.5"/><circle cx="462" cy="795" r="1.5"/><circle cx="704" cy="561" r="2"/><circle cx="464" cy="445" r="1.5"/><circle cx="496" cy="579" r="1.5"/><circle cx="628" cy="442" r="1.5"/><circle cx="601" cy="642" r="1.5"/><circle cx="673" cy="563" r="1.5"/><circle cx="765" cy="648" r="1.5"/><circle cx="778" cy="582" r="2.5"/><circle cx="604" cy="705" r="2.5"/><circle cx="664" cy="646" r="2.5"/><circle cx="646" cy="951" r="1.5"/><circle cx="639" cy="584" r="1.5"/><circle cx="529" cy="714" r="2"/><circle cx="699" cy="661" r="1.5"/><circle cx="744" cy="585" r="2.5"/><circle cx="611" cy="625" r="2.5"/><circle cx="993" cy="618" r="2.5"/><circle cx="612" cy="640" r="2.5"/><circle cx="735" cy="657" r="2.5"/><circle cx="621" cy="686" r="2.5"/><circle cx="669" cy="672" r="2"/><circle cx="500" cy="560" r="2.5"/><circle cx="533" cy="692" r="1.5"/><circle cx="548" cy="683" r="2.5"/><circle cx="660" cy="639" r="2"/><circle cx="735" cy="645" r="1.5"/><circle cx="944" cy="844" r="2"/><circle cx="467" cy="620" r="2.5"/><circle cx="718" cy="794" r="1.5"/><circle cx="672" cy="625" r="2.5"/><circle cx="529" cy="664" r="2"/><circle cx="842" cy="584" r="2.5"/><circle cx="918" cy="651" r="2.5"/><circle cx="751" cy="637" r="1.5"/><circle cx="368" cy="665" r="2"/><circle cx="544" cy="562" r="2"/><circle cx="672" cy="624" r="2.5"/><circle cx="785" cy="448" r="2"/><circle cx="675" cy="877" r="1.5"/><circle cx="752" cy="676" r="2.5"/><circle cx="610" cy="514" r="2.5"/><circle cx="708" cy="613" r="2"/><circle cx="692" cy="454" r="1.5"/><circle cx="633" cy="633" r="1.5"/><circle cx="675" cy="613" r="1.5"/><circle cx="693" cy="774" r="2"/><circle cx="637" cy="703" r="1.5"/><circle cx="674" cy="625" r="2.5"/><circle cx="604" cy="462" r="1.5"/><circle cx="798" cy="710" r="1.5"/><circle cx="604" cy="593" r="2"/><circle cx="646" cy="641" r="2.5"/><circle cx="872" cy="635" r="2.5"/><circle cx="555" cy="903" r="2"/><circle cx="615" cy="566" r="2.5"/><circle cx="753" cy="566" r="1.5"/><circle cx="672" cy="638" r="2"/><circle cx="707" cy="617" r="2.5"/><circle cx="794" cy="637" r="2.5"/><circle cx="600" cy="625" r="2.5"/><circle cx="666" cy="735" r="2"/><circle cx="624" cy="557" r="2.5"/><circle cx="720" cy="632" r="2.5"/><circle cx="567" cy="760" r="2"/><circle cx="707" cy="706" r="2"/><circle cx="676" cy="615" r="2.5"/><circle cx="721" cy="760" r="1.5"/><circle cx="775" cy="608" r="1.5"/><circle cx="703" cy="828" r="2.5"/><circle cx="673" cy="630" r="1.5"/><circle cx="791" cy="594" r="1.5"/><circle cx="631" cy="625" r="2"/><circle cx="587" cy="663" r="1.5"/><circle cx="631" cy="569" r="2.5"/><circle cx="651" cy="637" r="1.5"/><circle cx="691" cy="688" r="1.5"/><circle cx="685" cy="627" r="2.5"/><circle cx="906" cy="698" r="2"/><circle cx="820" cy="518" r="1.5"/><circle cx="634" cy="348" r="2"/><circle cx="669" cy="628" r="2"/><circle cx="762" cy="792" r="2.5"/><circle cx="767" cy="640" r="1.5"/><circle cx="618" cy="552" r="2"/><circle cx="623" cy="694" r="2.5"/><circle cx="731" cy="709" r="2.5"/><circle cx="671" cy="625" r="2.5"/><circle cx="937" cy="563" r="2.5"/><circle cx="744" cy="834" r="2"/><circle cx="597" cy="700" r="2"/><circle cx="443" cy="707" r="2.5"/><circle cx="808" cy="659" r="2.5"/><circle cx="693" cy="615" r="1.5"/><circle cx="746" cy="782" r="1.5"/><circle cx="909" cy="660" r="2"/><circle cx="590" cy="665" r="2.5"/><circle cx="901" cy="672" r="1.5"/><circle cx="976" cy="678" r="2.5"/><circle cx="666" cy="727" r="2"/><circle cx="670" cy="536" r="1.5"/><circle cx="661" cy="688" r="2"/><circle cx="756" cy="606" r="2.5"/><circle cx="656" cy="563" r="2.5"/><circle cx="671" cy="626" r="1.5"/><circle cx="672" cy="614" r="2.5"/><circle cx="879" cy="528" r="1.5"/><circle cx="937" cy="657" r="1.5"/><circle cx="710" cy="920" r="1.5"/><circle cx="728" cy="611" r="1.5"/><circle cx="671" cy="625" r="1.5"/><circle cx="513" cy="629" r="1.5"/><circle cx="771" cy="585" r="2.5"/><circle cx="654" cy="427" r="1.5"/><circle cx="685" cy="603" r="2"/><circle cx="577" cy="767" r="1.5"/><circle cx="600" cy="747" r="2.5"/><circle cx="848" cy="700" r="1.5"/><circle cx="673" cy="626" r="1.5"/><circle cx="776" cy="660" r="1.5"/><circle cx="795" cy="645" r="1.5"/><circle cx="715" cy="620" r="2.5"/><circle cx="759" cy="561" r="2.5"/><circle cx="680" cy="628" r="2.5"/><circle cx="866" cy="731" r="1.5"/><circle cx="670" cy="625" r="2.5"/><circle cx="690" cy="768" r="1.5"/><circle cx="624" cy="550" r="2.5"/><circle cx="670" cy="523" r="1.5"/><circle cx="804" cy="724" r="1.5"/><circle cx="700" cy="589" r="2.5"/><circle cx="542" cy="731" r="2"/><circle cx="669" cy="596" r="1.5"/><circle cx="675" cy="710" r="2.5"/><circle cx="1226" cy="669" r="2.5"/><circle cx="1430" cy="307" r="1.5"/><circle cx="1342" cy="739" r="2.5"/><circle cx="1396" cy="246" r="2"/><circle cx="1540" cy="519" r="1.5"/><circle cx="1628" cy="162" r="1.5"/><circle cx="1380" cy="627" r="1.5"/><circle cx="1555" cy="689" r="1.5"/><circle cx="1171" cy="286" r="1.5"/><circle cx="1209" cy="219" r="1.5"/><circle cx="1619" cy="474" r="1.5"/><circle cx="1598" cy="337" r="2.5"/><circle cx="1568" cy="387" r="1.5"/><circle cx="1277" cy="600" r="2.5"/><circle cx="1606" cy="165" r="2.5"/><circle cx="1438" cy="498" r="2"/><circle cx="1256" cy="335" r="2"/><circle cx="1220" cy="228" r="1.5"/><circle cx="1274" cy="484" r="1.5"/><circle cx="1465" cy="228" r="1.5"/><circle cx="1157" cy="308" r="2.5"/><circle cx="1478" cy="216" r="1.5"/><circle cx="1302" cy="228" r="2"/><circle cx="1534" cy="451" r="2"/><circle cx="1182" cy="162" r="2"/><circle cx="1342" cy="452" r="2"/><circle cx="1459" cy="155" r="2"/><circle cx="1231" cy="547" r="1.5"/><circle cx="1349" cy="280" r="2"/><circle cx="1300" cy="714" r="2"/><circle cx="1302" cy="463" r="2"/><circle cx="1323" cy="366" r="1.5"/><circle cx="1567" cy="742" r="2.5"/><circle cx="1327" cy="224" r="2"/><circle cx="1501" cy="228" r="2"/><circle cx="1155" cy="680" r="2.5"/><circle cx="1355" cy="628" r="2.5"/><circle cx="1347" cy="668" r="2"/></g>
<g fill="none" stroke="currentColor" stroke-width="2">
  <circle cx="672" cy="624" r="9"/>
  <circle cx="848" cy="564" r="9"/>
  <path d="M672 624 L848 564" stroke-dasharray="7 7"/>
</g></svg>